<mxfile host="app.diagrams.net" modified="2023-12-29T14:14:29.188Z" agent="Mozilla/5.0 (Windows NT 10.0; Win64; x64) AppleWebKit/537.36 (KHTML, like Gecko) Chrome/120.0.0.0 Safari/537.36" etag="V7HnIstTeC22WxkeWw2_" version="22.1.16" type="github">
  <diagram name="Page-1" id="o9Q4rjsFxpSF77I3_r0L">
    <mxGraphModel dx="3733" dy="1502" grid="1" gridSize="10" guides="1" tooltips="1" connect="1" arrows="1" fold="1" page="1" pageScale="1" pageWidth="1169" pageHeight="827" math="0" shadow="0">
      <root>
        <mxCell id="0" />
        <mxCell id="1" parent="0" />
        <mxCell id="TF3HSX-W0WKJXSVS0arP-4" value="1" style="ellipse;whiteSpace=wrap;html=1;fontSize=16;" parent="1" vertex="1">
          <mxGeometry x="-2240" y="-720" width="40" height="40" as="geometry" />
        </mxCell>
        <mxCell id="9W2sHSypaZOzRdrTCwbB-4" value="2" style="ellipse;whiteSpace=wrap;html=1;fontSize=16;" vertex="1" parent="1">
          <mxGeometry x="-2240" y="-400" width="40" height="40" as="geometry" />
        </mxCell>
        <mxCell id="9W2sHSypaZOzRdrTCwbB-5" value="3" style="ellipse;whiteSpace=wrap;html=1;fontSize=16;" vertex="1" parent="1">
          <mxGeometry x="-1960" y="-560" width="40" height="40" as="geometry" />
        </mxCell>
        <mxCell id="9W2sHSypaZOzRdrTCwbB-6" value="4" style="ellipse;whiteSpace=wrap;html=1;fontSize=16;" vertex="1" parent="1">
          <mxGeometry x="-2040" y="-320" width="40" height="40" as="geometry" />
        </mxCell>
        <mxCell id="9W2sHSypaZOzRdrTCwbB-8" value="5" style="ellipse;whiteSpace=wrap;html=1;fontSize=16;" vertex="1" parent="1">
          <mxGeometry x="-1720" y="-560" width="40" height="40" as="geometry" />
        </mxCell>
        <mxCell id="9W2sHSypaZOzRdrTCwbB-9" value="6" style="ellipse;whiteSpace=wrap;html=1;fontSize=16;" vertex="1" parent="1">
          <mxGeometry x="-1800" y="-240" width="40" height="40" as="geometry" />
        </mxCell>
        <mxCell id="9W2sHSypaZOzRdrTCwbB-10" value="7" style="ellipse;whiteSpace=wrap;html=1;fontSize=16;" vertex="1" parent="1">
          <mxGeometry x="-1570" y="-560" width="40" height="40" as="geometry" />
        </mxCell>
        <mxCell id="9W2sHSypaZOzRdrTCwbB-11" value="8" style="ellipse;whiteSpace=wrap;html=1;fontSize=16;" vertex="1" parent="1">
          <mxGeometry x="-1600" y="-240" width="40" height="40" as="geometry" />
        </mxCell>
        <mxCell id="9W2sHSypaZOzRdrTCwbB-12" value="12" style="ellipse;whiteSpace=wrap;html=1;fontSize=16;" vertex="1" parent="1">
          <mxGeometry x="-1280" y="-720" width="40" height="40" as="geometry" />
        </mxCell>
        <mxCell id="9W2sHSypaZOzRdrTCwbB-13" value="11" style="ellipse;whiteSpace=wrap;html=1;fontSize=16;" vertex="1" parent="1">
          <mxGeometry x="-1280" y="-560" width="40" height="40" as="geometry" />
        </mxCell>
        <mxCell id="9W2sHSypaZOzRdrTCwbB-14" value="9" style="ellipse;whiteSpace=wrap;html=1;fontSize=16;" vertex="1" parent="1">
          <mxGeometry x="-1520" y="-360" width="40" height="40" as="geometry" />
        </mxCell>
        <mxCell id="9W2sHSypaZOzRdrTCwbB-19" value="10" style="ellipse;whiteSpace=wrap;html=1;fontSize=16;" vertex="1" parent="1">
          <mxGeometry x="-1360" y="-400" width="40" height="40" as="geometry" />
        </mxCell>
        <mxCell id="9W2sHSypaZOzRdrTCwbB-33" value="" style="endArrow=none;html=1;rounded=0;entryX=0;entryY=0.5;entryDx=0;entryDy=0;exitX=1;exitY=0.5;exitDx=0;exitDy=0;" edge="1" parent="1" source="TF3HSX-W0WKJXSVS0arP-4" target="9W2sHSypaZOzRdrTCwbB-12">
          <mxGeometry width="50" height="50" relative="1" as="geometry">
            <mxPoint x="-1570" y="-170" as="sourcePoint" />
            <mxPoint x="-1520" y="-220" as="targetPoint" />
          </mxGeometry>
        </mxCell>
        <mxCell id="9W2sHSypaZOzRdrTCwbB-34" value="" style="endArrow=none;html=1;rounded=0;entryX=1;entryY=1;entryDx=0;entryDy=0;" edge="1" parent="1" source="9W2sHSypaZOzRdrTCwbB-5" target="TF3HSX-W0WKJXSVS0arP-4">
          <mxGeometry width="50" height="50" relative="1" as="geometry">
            <mxPoint x="-1910" y="-270" as="sourcePoint" />
            <mxPoint x="-1860" y="-320" as="targetPoint" />
          </mxGeometry>
        </mxCell>
        <mxCell id="9W2sHSypaZOzRdrTCwbB-35" value="" style="endArrow=none;html=1;rounded=0;entryX=0;entryY=1;entryDx=0;entryDy=0;exitX=1;exitY=0.5;exitDx=0;exitDy=0;" edge="1" parent="1" source="9W2sHSypaZOzRdrTCwbB-4" target="9W2sHSypaZOzRdrTCwbB-5">
          <mxGeometry width="50" height="50" relative="1" as="geometry">
            <mxPoint x="-1910" y="-230" as="sourcePoint" />
            <mxPoint x="-1860" y="-280" as="targetPoint" />
          </mxGeometry>
        </mxCell>
        <mxCell id="9W2sHSypaZOzRdrTCwbB-36" value="" style="endArrow=none;html=1;rounded=0;entryX=0.5;entryY=1;entryDx=0;entryDy=0;exitX=0.5;exitY=0;exitDx=0;exitDy=0;" edge="1" parent="1" source="9W2sHSypaZOzRdrTCwbB-4" target="TF3HSX-W0WKJXSVS0arP-4">
          <mxGeometry width="50" height="50" relative="1" as="geometry">
            <mxPoint x="-1910" y="-270" as="sourcePoint" />
            <mxPoint x="-1860" y="-320" as="targetPoint" />
          </mxGeometry>
        </mxCell>
        <mxCell id="9W2sHSypaZOzRdrTCwbB-37" value="" style="endArrow=none;html=1;rounded=0;entryX=1;entryY=0.5;entryDx=0;entryDy=0;exitX=0;exitY=0.5;exitDx=0;exitDy=0;" edge="1" parent="1" source="9W2sHSypaZOzRdrTCwbB-8" target="9W2sHSypaZOzRdrTCwbB-5">
          <mxGeometry width="50" height="50" relative="1" as="geometry">
            <mxPoint x="-1910" y="-230" as="sourcePoint" />
            <mxPoint x="-1860" y="-280" as="targetPoint" />
          </mxGeometry>
        </mxCell>
        <mxCell id="9W2sHSypaZOzRdrTCwbB-38" value="" style="endArrow=none;html=1;rounded=0;exitX=1;exitY=1;exitDx=0;exitDy=0;entryX=0;entryY=0.5;entryDx=0;entryDy=0;" edge="1" parent="1" source="9W2sHSypaZOzRdrTCwbB-4" target="9W2sHSypaZOzRdrTCwbB-6">
          <mxGeometry width="50" height="50" relative="1" as="geometry">
            <mxPoint x="-1910" y="-230" as="sourcePoint" />
            <mxPoint x="-1860" y="-280" as="targetPoint" />
          </mxGeometry>
        </mxCell>
        <mxCell id="9W2sHSypaZOzRdrTCwbB-39" value="" style="endArrow=none;html=1;rounded=0;exitX=0;exitY=0.5;exitDx=0;exitDy=0;entryX=1;entryY=1;entryDx=0;entryDy=0;" edge="1" parent="1" source="9W2sHSypaZOzRdrTCwbB-9" target="9W2sHSypaZOzRdrTCwbB-6">
          <mxGeometry width="50" height="50" relative="1" as="geometry">
            <mxPoint x="-1910" y="-230" as="sourcePoint" />
            <mxPoint x="-2000" y="-300" as="targetPoint" />
          </mxGeometry>
        </mxCell>
        <mxCell id="9W2sHSypaZOzRdrTCwbB-40" value="" style="endArrow=none;html=1;rounded=0;entryX=0;entryY=0.5;entryDx=0;entryDy=0;exitX=1;exitY=0.5;exitDx=0;exitDy=0;" edge="1" parent="1" source="9W2sHSypaZOzRdrTCwbB-9" target="9W2sHSypaZOzRdrTCwbB-11">
          <mxGeometry width="50" height="50" relative="1" as="geometry">
            <mxPoint x="-1720" y="-210" as="sourcePoint" />
            <mxPoint x="-1670" y="-260" as="targetPoint" />
          </mxGeometry>
        </mxCell>
        <mxCell id="9W2sHSypaZOzRdrTCwbB-42" value="" style="endArrow=none;html=1;rounded=0;entryX=0;entryY=0.5;entryDx=0;entryDy=0;exitX=1;exitY=0.5;exitDx=0;exitDy=0;" edge="1" parent="1" source="9W2sHSypaZOzRdrTCwbB-8" target="9W2sHSypaZOzRdrTCwbB-10">
          <mxGeometry width="50" height="50" relative="1" as="geometry">
            <mxPoint x="-1960" y="-300" as="sourcePoint" />
            <mxPoint x="-1910" y="-350" as="targetPoint" />
          </mxGeometry>
        </mxCell>
        <mxCell id="9W2sHSypaZOzRdrTCwbB-43" value="" style="endArrow=none;html=1;rounded=0;entryX=0;entryY=0.5;entryDx=0;entryDy=0;exitX=1;exitY=0.5;exitDx=0;exitDy=0;" edge="1" parent="1" source="9W2sHSypaZOzRdrTCwbB-14" target="9W2sHSypaZOzRdrTCwbB-19">
          <mxGeometry width="50" height="50" relative="1" as="geometry">
            <mxPoint x="-1580" y="-350" as="sourcePoint" />
            <mxPoint x="-1530" y="-400" as="targetPoint" />
          </mxGeometry>
        </mxCell>
        <mxCell id="9W2sHSypaZOzRdrTCwbB-46" value="" style="endArrow=none;html=1;rounded=0;entryX=0;entryY=1;entryDx=0;entryDy=0;exitX=1;exitY=0;exitDx=0;exitDy=0;" edge="1" parent="1" source="9W2sHSypaZOzRdrTCwbB-10" target="9W2sHSypaZOzRdrTCwbB-12">
          <mxGeometry width="50" height="50" relative="1" as="geometry">
            <mxPoint x="-1580" y="-390" as="sourcePoint" />
            <mxPoint x="-1530" y="-440" as="targetPoint" />
          </mxGeometry>
        </mxCell>
        <mxCell id="9W2sHSypaZOzRdrTCwbB-48" value="" style="endArrow=none;html=1;rounded=0;entryX=0;entryY=0.5;entryDx=0;entryDy=0;exitX=1;exitY=0.5;exitDx=0;exitDy=0;" edge="1" parent="1" source="9W2sHSypaZOzRdrTCwbB-10" target="9W2sHSypaZOzRdrTCwbB-13">
          <mxGeometry width="50" height="50" relative="1" as="geometry">
            <mxPoint x="-1580" y="-350" as="sourcePoint" />
            <mxPoint x="-1530" y="-400" as="targetPoint" />
          </mxGeometry>
        </mxCell>
        <mxCell id="9W2sHSypaZOzRdrTCwbB-49" value="" style="endArrow=none;html=1;rounded=0;entryX=0;entryY=0;entryDx=0;entryDy=0;exitX=1;exitY=1;exitDx=0;exitDy=0;" edge="1" parent="1" source="9W2sHSypaZOzRdrTCwbB-10" target="9W2sHSypaZOzRdrTCwbB-19">
          <mxGeometry width="50" height="50" relative="1" as="geometry">
            <mxPoint x="-1580" y="-350" as="sourcePoint" />
            <mxPoint x="-1530" y="-400" as="targetPoint" />
          </mxGeometry>
        </mxCell>
        <mxCell id="9W2sHSypaZOzRdrTCwbB-50" value="" style="endArrow=none;html=1;rounded=0;entryX=0.5;entryY=1;entryDx=0;entryDy=0;exitX=1;exitY=0;exitDx=0;exitDy=0;" edge="1" parent="1" source="9W2sHSypaZOzRdrTCwbB-19" target="9W2sHSypaZOzRdrTCwbB-13">
          <mxGeometry width="50" height="50" relative="1" as="geometry">
            <mxPoint x="-1320" y="-410" as="sourcePoint" />
            <mxPoint x="-1270" y="-460" as="targetPoint" />
          </mxGeometry>
        </mxCell>
        <mxCell id="9W2sHSypaZOzRdrTCwbB-51" value="" style="endArrow=none;html=1;rounded=0;entryX=0;entryY=1;entryDx=0;entryDy=0;exitX=1;exitY=0;exitDx=0;exitDy=0;" edge="1" parent="1" source="9W2sHSypaZOzRdrTCwbB-11" target="9W2sHSypaZOzRdrTCwbB-14">
          <mxGeometry width="50" height="50" relative="1" as="geometry">
            <mxPoint x="-1570" y="-280" as="sourcePoint" />
            <mxPoint x="-1520" y="-330" as="targetPoint" />
          </mxGeometry>
        </mxCell>
        <mxCell id="9W2sHSypaZOzRdrTCwbB-52" value="" style="endArrow=none;html=1;rounded=0;entryX=0;entryY=1;entryDx=0;entryDy=0;exitX=1;exitY=0.5;exitDx=0;exitDy=0;" edge="1" parent="1" source="9W2sHSypaZOzRdrTCwbB-11" target="9W2sHSypaZOzRdrTCwbB-19">
          <mxGeometry width="50" height="50" relative="1" as="geometry">
            <mxPoint x="-1470" y="-220" as="sourcePoint" />
            <mxPoint x="-1420" y="-270" as="targetPoint" />
          </mxGeometry>
        </mxCell>
        <mxCell id="9W2sHSypaZOzRdrTCwbB-53" value="" style="endArrow=none;html=1;rounded=0;entryX=0.5;entryY=1;entryDx=0;entryDy=0;exitX=0.5;exitY=0;exitDx=0;exitDy=0;" edge="1" parent="1" source="9W2sHSypaZOzRdrTCwbB-13" target="9W2sHSypaZOzRdrTCwbB-12">
          <mxGeometry width="50" height="50" relative="1" as="geometry">
            <mxPoint x="-1290" y="-610" as="sourcePoint" />
            <mxPoint x="-1240" y="-660" as="targetPoint" />
          </mxGeometry>
        </mxCell>
        <mxCell id="9W2sHSypaZOzRdrTCwbB-55" value="" style="endArrow=none;html=1;rounded=0;entryX=0.5;entryY=1;entryDx=0;entryDy=0;exitX=0.5;exitY=0;exitDx=0;exitDy=0;" edge="1" parent="1" source="9W2sHSypaZOzRdrTCwbB-9" target="9W2sHSypaZOzRdrTCwbB-8">
          <mxGeometry width="50" height="50" relative="1" as="geometry">
            <mxPoint x="-1780" y="-350" as="sourcePoint" />
            <mxPoint x="-1730" y="-400" as="targetPoint" />
          </mxGeometry>
        </mxCell>
        <mxCell id="9W2sHSypaZOzRdrTCwbB-57" value="SEA" style="text;html=1;align=center;verticalAlign=middle;resizable=0;points=[];autosize=1;strokeColor=none;fillColor=none;" vertex="1" parent="1">
          <mxGeometry x="-2245" y="-752" width="50" height="30" as="geometry" />
        </mxCell>
        <mxCell id="9W2sHSypaZOzRdrTCwbB-58" value="SF" style="text;html=1;align=center;verticalAlign=middle;resizable=0;points=[];autosize=1;strokeColor=none;fillColor=none;" vertex="1" parent="1">
          <mxGeometry x="-2240" y="-360" width="40" height="30" as="geometry" />
        </mxCell>
        <mxCell id="9W2sHSypaZOzRdrTCwbB-59" value="LA" style="text;html=1;align=center;verticalAlign=middle;resizable=0;points=[];autosize=1;strokeColor=none;fillColor=none;" vertex="1" parent="1">
          <mxGeometry x="-2040" y="-280" width="40" height="30" as="geometry" />
        </mxCell>
        <mxCell id="9W2sHSypaZOzRdrTCwbB-60" value="DEN" style="text;html=1;align=center;verticalAlign=middle;resizable=0;points=[];autosize=1;strokeColor=none;fillColor=none;" vertex="1" parent="1">
          <mxGeometry x="-1965" y="-590" width="50" height="30" as="geometry" />
        </mxCell>
        <mxCell id="9W2sHSypaZOzRdrTCwbB-61" value="CHI" style="text;html=1;align=center;verticalAlign=middle;resizable=0;points=[];autosize=1;strokeColor=none;fillColor=none;" vertex="1" parent="1">
          <mxGeometry x="-1720" y="-590" width="40" height="30" as="geometry" />
        </mxCell>
        <mxCell id="9W2sHSypaZOzRdrTCwbB-62" value="CLE" style="text;html=1;align=center;verticalAlign=middle;resizable=0;points=[];autosize=1;strokeColor=none;fillColor=none;" vertex="1" parent="1">
          <mxGeometry x="-1575" y="-590" width="50" height="30" as="geometry" />
        </mxCell>
        <mxCell id="9W2sHSypaZOzRdrTCwbB-63" value="WSH" style="text;html=1;align=center;verticalAlign=middle;resizable=0;points=[];autosize=1;strokeColor=none;fillColor=none;" vertex="1" parent="1">
          <mxGeometry x="-1525" y="-390" width="50" height="30" as="geometry" />
        </mxCell>
        <mxCell id="9W2sHSypaZOzRdrTCwbB-64" value="HOU" style="text;html=1;align=center;verticalAlign=middle;resizable=0;points=[];autosize=1;strokeColor=none;fillColor=none;" vertex="1" parent="1">
          <mxGeometry x="-1803" y="-200" width="50" height="30" as="geometry" />
        </mxCell>
        <mxCell id="9W2sHSypaZOzRdrTCwbB-65" value="ATL" style="text;html=1;align=center;verticalAlign=middle;resizable=0;points=[];autosize=1;strokeColor=none;fillColor=none;" vertex="1" parent="1">
          <mxGeometry x="-1600" y="-202" width="40" height="30" as="geometry" />
        </mxCell>
        <mxCell id="9W2sHSypaZOzRdrTCwbB-66" value="PHI" style="text;html=1;align=center;verticalAlign=middle;resizable=0;points=[];autosize=1;strokeColor=none;fillColor=none;" vertex="1" parent="1">
          <mxGeometry x="-1360" y="-360" width="40" height="30" as="geometry" />
        </mxCell>
        <mxCell id="9W2sHSypaZOzRdrTCwbB-67" value="NY" style="text;html=1;align=center;verticalAlign=middle;resizable=0;points=[];autosize=1;strokeColor=none;fillColor=none;" vertex="1" parent="1">
          <mxGeometry x="-1240" y="-555" width="40" height="30" as="geometry" />
        </mxCell>
        <mxCell id="9W2sHSypaZOzRdrTCwbB-68" value="BOS" style="text;html=1;align=center;verticalAlign=middle;resizable=0;points=[];autosize=1;strokeColor=none;fillColor=none;" vertex="1" parent="1">
          <mxGeometry x="-1285" y="-750" width="50" height="30" as="geometry" />
        </mxCell>
      </root>
    </mxGraphModel>
  </diagram>
</mxfile>
